<?xml version="1.0" encoding="UTF-8" standalone="no"?>
<!-- Created with Inkscape (http://www.inkscape.org/) -->

<svg
   xmlns:dc="http://purl.org/dc/elements/1.1/"
   xmlns:cc="http://creativecommons.org/ns#"
   xmlns:rdf="http://www.w3.org/1999/02/22-rdf-syntax-ns#"
   xmlns:svg="http://www.w3.org/2000/svg"
   xmlns="http://www.w3.org/2000/svg"
   xmlns:inkscape="http://www.inkscape.org/namespaces/inkscape"
   version="1.1"
   width="90"
   height="3240"
   id="svg2"
   xml:space="preserve"><metadata
     id="metadata8"><rdf:RDF><cc:Work
         rdf:about=""><dc:format>image/svg+xml</dc:format><dc:type
           rdf:resource="http://purl.org/dc/dcmitype/StillImage" /></cc:Work></rdf:RDF></metadata><defs
     id="defs6"><clipPath
       id="clipPath16"><path
         d="m 0,2592 72,0 L 72,0 0,0 0,2592 z"
         inkscape:connector-curvature="0"
         id="path18" /></clipPath></defs><g
     transform="matrix(1.25,0,0,-1.25,0,3240)"
     id="g10"><g
       id="g12"><g
         clip-path="url(#clipPath16)"
         id="g14"><g
           transform="translate(38.3076,2561.3635)"
           id="g20"><path
             d="m 0,0 c -1.419,-0.158 -2.791,-0.22 -4.126,-0.477 -3.31,-0.637 -5.021,-2.933 -4.793,-6.285 0.174,-2.56 1.918,-4.085 4.287,-3.687 1.462,0.246 2.548,0.47 3.358,1.695 C 0.35,-6.3 0.013,-2.895 0,0 m 1.094,-12.25 c -0.655,-0.582 -1.348,-1.244 -2.088,-1.849 -2.583,-2.113 -5.638,-2.641 -8.82,-2.302 -4.937,0.526 -7.812,3.823 -7.893,8.792 -0.091,5.514 2.727,9.25 8.249,10.902 2.691,0.806 5.473,1.077 8.257,1.316 0.305,0.026 0.609,0.047 0.913,0.078 0.084,0.008 0.165,0.043 0.377,0.101 -0.08,1.264 -0.065,2.557 -0.266,3.816 -0.246,1.548 -1.45,2.57 -3.065,2.81 -2.502,0.371 -5.14,-0.95 -5.717,-3.618 -0.194,-0.897 -0.693,-1.166 -1.588,-1.049 -1.622,0.212 -3.246,0.42 -4.871,0.615 -1.126,0.135 -1.425,0.553 -1.175,1.672 0.759,3.406 2.705,5.908 5.885,7.309 4.709,2.076 9.495,2.122 14.217,0.034 C 6.585,15.016 8.253,12.531 8.363,9.191 8.507,4.85 8.466,0.593 8.466,-3.842 c 0,-2.242 0.251,-4.406 2.145,-6.397 0.664,-0.752 0.568,-1.323 -0.173,-1.965 -1.369,-1.188 -2.739,-2.375 -4.116,-3.553 -0.734,-0.627 -1.393,-0.655 -2.076,0.045 -1.077,1.105 -2.083,2.279 -3.152,3.462"
             inkscape:connector-curvature="0"
             id="path22"
             style="fill:#ffffff;fill-opacity:1;fill-rule:nonzero;stroke:none" /></g><g
           transform="translate(34.8558,2535.1853)"
           id="g24"><path
             d="m 0,0 c -6.259,-0.002 -11.016,1.24 -15.368,4.224 -2.334,1.601 -4.504,3.443 -6.733,5.196 -0.628,0.494 -0.751,1.156 -0.396,1.66 0.361,0.511 1.005,0.619 1.707,0.251 2.239,-1.176 4.45,-2.409 6.713,-3.536 3.556,-1.771 7.275,-3.054 11.262,-3.421 3.243,-0.3 6.448,0.018 9.631,0.647 3.371,0.665 6.618,1.726 9.775,3.073 0.221,0.094 0.44,0.195 0.669,0.262 0.721,0.213 1.437,-0.052 1.762,-0.637 C 19.357,7.114 19.216,6.407 18.56,5.927 17.699,5.297 16.816,4.686 15.895,4.15 10.718,1.138 5.085,0.129 0,0"
             inkscape:connector-curvature="0"
             id="path26"
             style="fill:#ffffff;fill-opacity:1;fill-rule:nonzero;stroke:none" /></g><g
           transform="translate(54.089,2545.3381)"
           id="g28"><path
             d="M 0,0 C -1.081,-0.135 -2.164,-0.259 -3.242,-0.411 -3.812,-0.492 -4.325,-0.418 -4.577,0.143 -4.84,0.731 -4.56,1.206 -4.078,1.559 -2.001,3.077 0.376,3.376 2.837,3.127 5.143,2.894 5.55,2.379 5.302,0.084 5.05,-2.249 4.205,-4.352 2.545,-6.068 2.337,-6.283 2.081,-6.555 1.82,-6.59 1.447,-6.639 0.949,-6.61 0.693,-6.392 c -0.225,0.19 -0.329,0.723 -0.245,1.04 0.267,1.008 0.667,1.981 0.976,2.979 0.16,0.518 0.239,1.061 0.353,1.593 C 1.882,-0.292 1.64,-0.093 1.186,-0.086 0.793,-0.079 0.4,-0.084 0.008,-0.084 0.005,-0.056 0.003,-0.028 0,0"
             inkscape:connector-curvature="0"
             id="path30"
             style="fill:#ffffff;fill-opacity:1;fill-rule:nonzero;stroke:none" /></g><g
           transform="translate(20.0574,2488.6267)"
           id="g32"><path
             d="m 0,0 c -0.031,0.003 -0.062,-0.011 -0.093,-0.009 -0.678,-2.189 -1.356,-4.618 -2.043,-6.618 l 4.178,0 C 1.352,-4.627 0.676,-2.182 0,0 m 10.006,-13.594 c -0.141,-0.011 -0.254,-0.029 -0.366,-0.029 -1.634,-0.001 -3.268,0.009 -4.901,-0.008 -0.313,-0.004 -0.436,0.107 -0.522,0.391 -0.212,0.703 -0.466,1.393 -0.685,2.095 -0.08,0.257 -0.189,0.376 -0.487,0.374 -2.105,-0.014 -4.209,-0.013 -6.314,0 -0.291,0.002 -0.412,-0.104 -0.493,-0.366 -0.227,-0.73 -0.466,-1.456 -0.728,-2.174 -0.047,-0.128 -0.222,-0.298 -0.339,-0.299 -1.751,-0.018 -3.503,-0.011 -5.254,-0.007 -0.04,0 -0.079,0.026 -0.157,0.053 0.312,0.783 0.62,1.559 0.931,2.333 2.322,5.768 4.648,11.534 6.957,17.307 0.149,0.374 0.33,0.5 0.732,0.488 C -0.517,6.532 0.588,6.546 1.692,6.558 1.945,6.561 2.079,6.497 2.179,6.241 4.757,-0.295 7.345,-6.827 9.931,-13.36 c 0.026,-0.066 0.043,-0.135 0.075,-0.234"
             inkscape:connector-curvature="0"
             id="path34"
             style="fill:#ffffff;fill-opacity:1;fill-rule:nonzero;stroke:none" /></g><g
           transform="translate(42.0919,2482.5891)"
           id="g36"><path
             d="M 0,0 C -0.004,2.11 -1.634,3.824 -3.643,3.833 -5.665,3.841 -7.327,2.108 -7.329,-0.01 -7.33,-2.104 -5.678,-3.837 -3.677,-3.84 -1.64,-3.844 0.004,-2.127 0,0 m -3.699,-8.134 c -4.649,0.011 -8.168,3.537 -8.158,8.172 0.01,4.545 3.632,8.102 8.225,8.077 C 0.98,8.091 4.536,4.538 4.521,-0.029 4.507,-4.658 0.97,-8.145 -3.699,-8.134"
             inkscape:connector-curvature="0"
             id="path38"
             style="fill:#ffffff;fill-opacity:1;fill-rule:nonzero;stroke:none" /></g><path
           d="m 54,2475 -5,0 0,20 5,0 0,-20 z"
           inkscape:connector-curvature="0"
           id="path40"
           style="fill:#ffffff;fill-opacity:1;fill-rule:nonzero;stroke:none" /><g
           transform="translate(61.8003,2477.292)"
           id="g42"><path
             d="m 0,0 c -0.002,-1.572 -1.263,-2.329 -2.834,-2.329 -1.566,0 -2.837,0.762 -2.842,2.327 -0.006,1.581 1.421,2.738 2.996,2.724 C -1.116,2.709 0.002,1.573 0,0"
             inkscape:connector-curvature="0"
             id="path44"
             style="fill:#ffffff;fill-opacity:1;fill-rule:nonzero;stroke:none" /></g><g
           transform="translate(38,2317)"
           id="g46"><path
             d="m 0,0 0,23 7,0 0,9.224 -7,0.038 0,6.088 C 0,39.77 1.761,43 4.329,43 L 8.953,43 9,51 1.71,51 C -4.956,51 -9,45.822 -9,38.35 l 0,-6.088 -7,-0.038 0,-9.224 7,0 0,-23 9,0 z"
             inkscape:connector-curvature="0"
             id="path48"
             style="fill:#ffffff;fill-opacity:1;fill-rule:nonzero;stroke:none" /></g><g
           transform="translate(35.9099,2223.8257)"
           id="g50"><path
             d="m 0,0 c -14.367,0 -25.686,-11.005 -25.686,-25.377 0,-11.495 7.123,-21.892 17.463,-25.333 1.301,-0.239 1.776,0.565 1.776,1.254 0,0.618 -0.023,2.254 -0.035,4.426 -7.238,-1.573 -8.765,3.488 -8.765,3.488 -1.183,3.005 -2.889,3.806 -2.889,3.806 -2.363,1.614 0.179,1.581 0.179,1.581 2.611,-0.184 3.985,-2.681 3.985,-2.681 2.321,-3.976 6.09,-2.828 7.573,-2.162 0.236,1.682 0.908,2.828 1.652,3.478 -5.778,0.657 -11.853,2.889 -11.853,12.86 0,2.841 1.014,5.164 2.679,6.983 -0.268,0.658 -1.161,3.303 0.255,6.886 0,0 2.184,0.699 7.155,-2.668 2.076,0.577 4.301,0.866 6.514,0.876 2.21,-0.01 4.436,-0.299 6.514,-0.876 4.968,3.367 7.149,2.668 7.149,2.668 1.419,-3.583 0.526,-6.228 0.258,-6.886 1.668,-1.819 2.675,-4.142 2.675,-6.983 0,-9.996 -5.919,-12.195 -11.716,-12.839 0.934,-0.803 2.207,-1.675 2.207,-4.102 l 0,-8.112 c 0,-0.696 -0.004,-1.248 1.317,-0.994 10.33,3.447 17.364,13.838 17.364,25.33 C 25.771,-11.005 14.371,0 0,0"
             inkscape:connector-curvature="0"
             id="path52"
             style="fill:#ffffff;fill-opacity:1;fill-rule:evenodd;stroke:none" /></g><g
           transform="translate(37.1698,2104.5742)"
           id="g54"><path
             d="m 0,0 c -5.657,-0.383 -10.47,2.651 -10.748,6.777 -0.281,4.126 3.621,7.149 9.278,7.532 C 4.189,14.692 9.46,12.292 9.74,8.166 10.019,4.038 5.658,0.383 0,0 m -7.952,32.462 c -1.283,4.717 1.341,9.692 4.711,10.608 C 0.129,43.987 3.9,40.905 5.183,36.187 6.467,31.468 4.776,26.9 1.406,25.983 c -3.37,-0.916 -8.075,1.76 -9.358,6.479 M 4.823,22.738 c 0,3.192 7.023,4.118 7.023,11.62 0,4.502 -0.415,7.715 -3.958,9.311 0,1.117 6.201,-0.243 6.201,2.757 l -14.262,0 c 0,0 -12.897,-0.42 -12.897,-12.169 0,-11.748 11.9,-11.093 11.9,-11.093 l 0,-2.98 c 0,-1.203 1.56,-0.799 1.762,-3.235 -0.82,0 -16.29,0.222 -16.29,-10.419 0,-10.641 13.514,-9.928 13.514,-9.928 0,0 16.337,-0.745 16.337,12.471 0,7.918 -9.33,10.472 -9.33,13.665"
             inkscape:connector-curvature="0"
             id="path56"
             style="fill:#ffffff;fill-opacity:1;fill-rule:nonzero;stroke:none" /></g><g
           transform="translate(33.1406,2029.7734)"
           id="g58"><path
             d="m 0,0 c -5.546,-0.376 -10.264,2.599 -10.537,6.644 -0.275,4.045 3.55,7.009 9.096,7.385 C 4.107,14.404 9.275,12.051 9.549,8.006 9.823,3.959 5.547,0.376 0,0 m -7.796,31.825 c -1.258,4.625 1.315,9.502 4.619,10.4 3.303,0.899 7,-2.122 8.258,-6.748 C 6.34,30.851 4.682,26.372 1.379,25.473 -1.925,24.575 -6.538,27.198 -7.796,31.825 M 4.728,22.292 c 0,3.129 6.886,4.037 6.886,11.392 0,4.413 -0.407,6.919 -3.881,8.484 0,1.095 6.08,0.059 6.08,2.059 l -13.983,0 c 0,0 -13.141,0.232 -13.141,-11.286 0,-11.518 11.17,-10.232 11.17,-10.232 l 0,-2.921 c 0,-1.179 2.026,-0.783 2.224,-3.171 -0.803,0 -15.721,0.217 -15.721,-10.215 0,-10.433 13.373,-9.733 13.373,-9.733 0,0 16.079,-0.731 16.079,12.227 0,7.762 -9.086,10.266 -9.086,13.396"
             inkscape:connector-curvature="0"
             id="path60"
             style="fill:#ffffff;fill-opacity:1;fill-rule:nonzero;stroke:none" /></g><g
           transform="translate(63,2056)"
           id="g62"><path
             d="m 0,0 -5,0 0,4 -4,0 0,-4 -5,0 0,-5 5,0 0,-4 4,0 0,4 5,0 0,5 z"
             inkscape:connector-curvature="0"
             id="path64"
             style="fill:#ffffff;fill-opacity:1;fill-rule:nonzero;stroke:none" /></g><g
           transform="translate(52,1964.8405)"
           id="g66"><path
             d="m 0,0 0,30.797 c 0,0 2.828,1.305 2.828,3.076 0,1.772 -1.61,4.232 -6.443,3.543 -4.832,-0.688 -9.356,-2.621 -9.017,-4.429 C -12.406,31.786 -12,30.532 -9,29.736 l 0,-14.868 c -7,-0.772 -12,-2.465 -14,-3.186 l 0,15.93 c 0,0 3.801,0.946 3.863,3.604 0.061,2.657 -4.306,4.814 -8.342,3.83 -4.035,-0.985 -7.325,-2.452 -7.029,-5.503 C -34.288,27.27 -32,26.55 -30,26.55 l 0,-29.736 c 0,0 -2.185,-1.129 -2.972,-3.196 -0.787,-2.066 1.36,-3.248 4.411,-3.346 3.051,-0.098 9.937,1.575 9.347,4.134 -0.591,2.559 -3.786,2.408 -3.786,2.408 l 0,8.496 c 5,3.683 11,4.286 14,4.248 L -9,0 c 0,0 -0.903,-0.575 -2.084,-2.543 -1.181,-1.969 1.762,-4.124 6.487,-3.829 4.724,0.295 7.813,2.353 7.714,3.435 C 3.019,-1.854 2,0.098 0,0"
             inkscape:connector-curvature="0"
             id="path68"
             style="fill:#ffffff;fill-opacity:1;fill-rule:nonzero;stroke:none" /></g><g
           transform="translate(56,1892.9166)"
           id="g70"><path
             d="m 0,0 c 0,-1.064 -1.477,-1.917 -2.542,-1.917 l -34.877,0 c -1.056,0 -2.581,0.857 -2.581,1.91 l 0,21.09 5.33,0 c -1.228,-2 -0.893,-7.726 1.2,-11.58 1.406,-2.586 3.42,-4.332 5.984,-5.769 5.074,-2.849 11.369,-2.433 16.15,0.824 1.843,1.255 3.351,2.9 4.512,4.803 1.161,1.903 1.876,3.477 2.137,5.69 0.262,2.213 0.057,6.032 -0.61,6.032 L 0,21.083 0,0 z m -19.976,27.477 c 5.621,0.004 10.155,-4.64 10.033,-10.258 -0.119,-5.452 -4.655,-9.933 -10.264,-9.813 -5.391,0.115 -9.887,4.566 -9.808,10.184 0.077,5.469 4.544,9.891 10.039,9.887 m 12.717,9.606 5.259,0 c 1.119,0 2,-0.877 2,-2 l 0,-5 c 0,-1.05 -0.951,-1.974 -2,-2 -0.817,-0.019 -4.428,0 -5.179,0 -0.926,0 -1.821,1.032 -1.821,2 0,1.551 -0.002,3.45 0,5 0,1.122 0.624,2 1.741,2 M 4.792,37.909 C 4.356,40.128 3.247,40.775 1,41.083 c -0.094,0.012 -1.009,0 -1.101,0 l -39.749,0 c -0.238,0 -0.915,0.054 -1.15,0 -2.195,-0.5 -3.512,-1.553 -3.826,-3.777 C -44.839,37.213 -45,37.402 -45,37.309 l 0,-39.747 c 0,-0.249 0.208,-0.504 0.265,-0.755 0.486,-2.146 2.381,-4.102 4.562,-4.383 0.104,-0.013 0.275,-0.341 0.38,-0.341 l 39.635,0 c 0.258,0 0.516,0.372 0.771,0.427 2.023,0.43 3.779,2.263 4.175,4.298 C 4.829,-2.97 5,-2.603 5,-2.382 l 0,39.639 c 0,0.216 -0.168,0.436 -0.208,0.652"
             inkscape:connector-curvature="0"
             id="path72"
             style="fill:#ffffff;fill-opacity:1;fill-rule:nonzero;stroke:none" /></g><g
           transform="translate(28.3299,1849.6621)"
           id="g74"><path
             d="m 0,0 c 0,0 2.898,3.739 6.73,6.73 3.833,2.992 10.002,5.235 10.937,-0.934 0.935,-6.17 1.496,-10.844 1.963,-11.498 0.468,-0.654 2.991,-1.776 7.385,-2.057 4.393,-0.28 8.132,-1.121 7.384,-4.58 -0.747,-3.459 -2.075,-9.271 -11.61,-11.234 0,0 0.674,-9.237 -0.168,-11.481 -0.841,-2.243 -2.804,-5.048 -9.441,-1.495 -6.637,3.552 -8.6,6.356 -8.6,6.356 0,0 -6.45,-6.543 -9.534,-5.889 -3.085,0.654 -5.567,4.91 -5.567,11.361 0,6.891 1.828,9.017 1.828,9.017 0,0 -4.3,4.487 -4.768,11.778 -0.467,7.291 1.496,8.226 4.487,7.385 C -5.983,2.617 0,0 0,0"
             inkscape:connector-curvature="0"
             id="path76"
             style="fill:#ffffff;fill-opacity:1;fill-rule:nonzero;stroke:none" /></g><g
           transform="translate(22.9786,1786.7852)"
           id="g78"><path
             d="m 0,0 c 2.633,0 4.773,-2.14 4.773,-4.774 0,-2.637 -2.14,-4.777 -4.773,-4.777 -2.64,0 -4.774,2.14 -4.774,4.777 C -4.774,-2.14 -2.64,0 0,0 m -4.979,-12.785 9,0 0,-27 -9,0 0,27 z"
             inkscape:connector-curvature="0"
             id="path80"
             style="fill:#ffffff;fill-opacity:1;fill-rule:nonzero;stroke:none" /></g><g
           transform="translate(31,1774)"
           id="g82"><path
             d="m 0,0 9,0 0,-4.457 0.243,0.449 c 1.1,2.082 3.639,5.194 7.645,5.194 C 25.222,1.186 27,-5.219 27,-12.357 L 27,-27 l -9,0 0,13.515 c 0,3.075 0.508,6.771 -3.936,6.771 C 9.471,-6.714 9,-9.182 9,-13.485 L 9,-27 0,-27 0,0 z"
             inkscape:connector-curvature="0"
             id="path84"
             style="fill:#ffffff;fill-opacity:1;fill-rule:nonzero;stroke:none" /></g><g
           transform="translate(31,1693)"
           id="g86"><path
             d="m 0,0 -15,0 0,14.465 15,2.2 L 0,0 z"
             inkscape:connector-curvature="0"
             id="path88"
             style="fill:#ffffff;fill-opacity:1;fill-rule:nonzero;stroke:none" /></g><g
           transform="translate(58,1693)"
           id="g90"><path
             d="M 0,0 -24,0 -24,16.665 0,21.064 0,0 z"
             inkscape:connector-curvature="0"
             id="path92"
             style="fill:#ffffff;fill-opacity:1;fill-rule:nonzero;stroke:none" /></g><g
           transform="translate(31,1674.4724)"
           id="g94"><path
             d="m 0,0 -15,3.299 0,13.229 15,0 L 0,0 z"
             inkscape:connector-curvature="0"
             id="path96"
             style="fill:#ffffff;fill-opacity:1;fill-rule:nonzero;stroke:none" /></g><g
           transform="translate(58,1670.0734)"
           id="g98"><path
             d="m 0,0 -24,3.299 0,17.628 24,0 L 0,0 z"
             inkscape:connector-curvature="0"
             id="path100"
             style="fill:#ffffff;fill-opacity:1;fill-rule:nonzero;stroke:none" /></g><g
           transform="translate(16.2977,1635.1387)"
           id="g102"><path
             d="M 0,0 C 2.699,4.266 6.259,7.215 11.125,8.56 6.525,9.854 -1.031,4.116 0,0 M 15.843,3.246 C 15.152,4.202 14.55,4.986 14.005,5.808 13.686,6.291 13.306,6.448 12.786,6.241 11.164,5.594 9.474,5.071 7.945,4.25 5.28,2.82 3.297,0.675 2.122,-2.152 2.011,-2.418 1.879,-2.821 1.997,-3.011 c 0.585,-0.942 1.252,-1.834 1.958,-2.841 2.638,4.873 6.581,7.796 11.888,9.098 m 18.04,-33.804 c -0.532,3.734 -1.102,7.734 -1.688,11.849 -2.86,-1.33 -5.752,-1.507 -8.647,-1.192 -0.214,-1.471 -0.285,-2.895 -0.653,-4.238 -0.367,-1.335 -1.032,-2.588 -1.591,-3.936 3.186,-1.479 6.462,-3.006 9.75,-4.507 0.157,-0.072 0.469,0.027 0.625,0.152 0.692,0.552 1.353,1.142 2.204,1.872 m -14.088,3.79 c 0.124,-0.007 0.248,-0.014 0.373,-0.021 0.476,1.429 1.123,2.828 1.379,4.295 0.254,1.45 0.309,3.008 -0.673,4.321 -3.553,4.754 -7.113,9.502 -10.673,14.251 -0.162,0.217 -0.347,0.418 -0.558,0.671 -1.48,-1.217 -2.447,-2.727 -3.336,-4.31 -0.338,-0.603 -0.265,-1.028 0.151,-1.574 3.326,-4.358 6.62,-8.742 9.924,-13.118 1.137,-1.506 2.275,-3.01 3.413,-4.515 m 11.274,9.462 c -0.207,0.301 -0.328,0.488 -0.46,0.666 -3.898,5.242 -7.794,10.485 -11.695,15.723 -1.433,1.924 -1.446,1.948 -3.743,1.27 -1.547,-0.457 -2.969,-1.174 -4.149,-2.298 0.092,-0.182 0.129,-0.292 0.196,-0.381 3.697,-4.931 7.396,-9.861 11.103,-14.785 0.147,-0.196 0.349,-0.389 0.568,-0.485 2.732,-1.198 5.418,-1.02 8.18,0.29 M 38.3,-39.074 c -0.405,0.151 -0.666,0.237 -0.917,0.345 -6.277,2.702 -12.557,5.4 -18.823,8.127 -0.438,0.191 -0.869,0.54 -1.152,0.926 -6.727,9.165 -13.416,18.357 -20.16,27.508 -1.087,1.474 -0.945,2.982 -0.462,4.504 1.119,3.529 3.597,5.953 6.698,7.793 2.165,1.284 4.472,2.184 7.048,2.074 1.962,-0.084 3.563,-0.705 4.827,-2.445 6.365,-8.763 13.49,-17.938 19.966,-26.62 0.764,-1.023 0.131,-1.67 0.295,-2.785 0.881,-5.995 1.712,-11.997 2.556,-17.997 0.058,-0.412 0.073,-0.831 0.124,-1.43"
             inkscape:connector-curvature="0"
             id="path104"
             style="fill:#ffffff;fill-opacity:1;fill-rule:nonzero;stroke:none" /></g><g
           transform="translate(35.2007,1390.1757)"
           id="g106"><path
             d="m 0,0 c -2.532,-0.122 -5.072,-0.102 -7.582,0.475 -2.134,0.49 -3.489,2.206 -3.222,4.229 0.268,2.029 1.723,3.187 3.907,2.939 2.599,-0.295 5.46,-0.254 8.031,0.397 3.482,0.881 6.405,2.676 8.738,5.41 0.747,0.875 1.539,1.655 2.75,1.825 1.592,0.223 3.128,-0.46 3.88,-1.833 C 17.309,11.968 17.2,10.489 16.187,9.156 14.606,7.075 12.682,5.338 10.28,3.732 c 3.08,-1.439 5.965,-2.8 8.864,-4.134 1.275,-0.587 2.236,-1.436 2.503,-2.867 0.271,-1.455 -0.075,-2.763 -1.25,-3.714 -1.26,-1.02 -2.718,-1.116 -4.16,-0.473 -2.595,1.158 -5.178,2.35 -7.718,3.623 -0.987,0.495 -1.46,0.471 -1.934,-0.647 -1.071,-2.524 -2.281,-4.991 -3.465,-7.467 -1.092,-2.281 -3.164,-3.172 -5.159,-2.266 -2.117,0.962 -2.824,3.104 -1.751,5.447 1.119,2.446 2.286,4.869 3.416,7.31 C -0.175,-1.028 0.178,-0.63 0,0"
             inkscape:connector-curvature="0"
             id="path108"
             style="fill:#ffffff;fill-opacity:1;fill-rule:nonzero;stroke:none" /></g><g
           transform="translate(32.0508,1408.7953)"
           id="g110"><path
             d="M 0,0 C 3.011,0.005 5.329,2.311 5.323,5.294 5.318,8.337 2.957,10.666 -0.111,10.656 -3.017,10.646 -5.377,8.222 -5.368,5.256 -5.359,2.303 -3.002,-0.005 0,0 m -0.014,-7.636 c -7.239,0.01 -12.653,5.023 -12.643,12.251 0.011,7.075 5.142,13.36 12.251,13.365 C 6.777,17.984 12.978,12.452 12.959,5.227 12.939,-1.917 7.163,-7.645 -0.014,-7.636"
             inkscape:connector-curvature="0"
             id="path112"
             style="fill:#ffffff;fill-opacity:1;fill-rule:nonzero;stroke:none" /></g><g
           transform="translate(34,1354.314)"
           id="g114"><path
             d="m 0,0 0,-37.739 0,-0.318 c -9,1.085 -15.929,5.21 -15.929,11.849 0,5.375 6.929,9.526 12.929,10.907 l 0,4.818 c -11,-1.476 -20.267,-7.747 -20.267,-15.725 0,-8.265 9.267,-16.598 23.267,-16.604 L 0,-42.98 7.965,-39.836 7.929,3.56 0,0 z"
             inkscape:connector-curvature="0"
             id="path116"
             style="fill:#ffffff;fill-opacity:1;fill-rule:nonzero;stroke:none" /></g><g
           transform="translate(54.8123,1338.3359)"
           id="g118"><path
             d="m 0,0 1.737,1.006 c -3.655,2.259 -9.549,3.859 -13.549,4.497 l 0,-4.816 c 2,-0.538 5.66,-1.552 7.942,-2.909 l -4.715,-2.753 14.773,-2.11 0,10.509 L 0,0 z"
             inkscape:connector-curvature="0"
             id="path120"
             style="fill:#ffffff;fill-opacity:1;fill-rule:nonzero;stroke:none" /></g><g
           transform="translate(31.3602,1200)"
           id="g122"><path
             d="m 0,0 15.292,0 c 1.437,0 2.649,0.438 3.689,0.162 C 18.972,2.047 18.88,4.296 18.242,5.564 17.56,6.921 15.442,11 8.958,11 l -15.292,0 c -1.025,0 -2.048,-0.874 -2.39,-2.23 -7.168,-31.528 -7.168,-32.085 -7.168,-32.085 -0.341,-1.017 0.342,-1.685 1.367,-1.685 l 5.461,0 c 0.377,0 0.755,-0.294 1.098,-0.071 1.037,4.743 2.746,11.586 5.576,24.032 C -2.048,0.318 -1.024,0 0,0"
             inkscape:connector-curvature="0"
             id="path124"
             style="fill:#ffffff;fill-opacity:1;fill-rule:nonzero;stroke:none" /></g><g
           transform="translate(55.9362,1196.4574)"
           id="g126"><path
             d="m 0,0 c -0.531,1.056 -1.942,3.349 -5.595,4.317 10e-4,-0.13 0.006,-0.254 0.006,-0.386 0,-4.067 -1.77,-6.01 -5.182,-8.722 -3.414,-2.711 -6.242,-2.666 -14.678,-2.666 l -1.707,0 c -1.023,0 -2.047,-2.072 -2.389,-3.089 0,0 -0.325,-1.887 -1.706,-9.166 -0.216,-0.642 -0.703,-1.571 -1.291,-1.953 -1.589,-7.27 -1.592,-8.166 -1.592,-8.166 -0.341,-1.017 0.342,-2.626 1.367,-2.626 l 5.461,0 c 1.023,0 2.047,1.545 2.389,2.562 1.381,7.279 1.706,7.552 1.706,7.552 0.342,1.017 1.366,0.886 2.389,0.886 l 1.707,0 c 8.436,0 11.264,2.43 14.678,5.142 3.413,2.711 5.182,6.401 5.182,10.468 C 0.745,-3.812 0.683,-1.356 0,0"
             inkscape:connector-curvature="0"
             id="path128"
             style="fill:#ffffff;fill-opacity:1;fill-rule:nonzero;stroke:none" /></g><g
           transform="translate(33.8144,1126.6993)"
           id="g130"><path
             d="m 0,0 c -2.347,-0.076 -4.072,-1.911 -4.582,-4.122 -0.145,-0.631 -0.159,-1.222 -0.396,-1.825 -0.239,-0.61 -0.206,-1.266 0.064,-1.86 0.244,-0.535 0.595,-0.98 0.81,-1.535 0.248,-0.639 0.587,-1.242 1.014,-1.779 0.378,-0.476 0.749,-0.667 0.736,-1.306 -0.013,-0.612 0.153,-1.036 -0.472,-1.31 -1.31,-0.573 -2.826,-0.673 -4.095,-1.361 -2.175,-1.18 -2.567,-3.947 -2.567,-6.162 0,-0.928 2.134,-0.439 2.786,-0.439 l 13.929,0 c 0.741,0 2.786,-0.344 2.786,0.439 0,0.576 -0.659,3.009 -0.934,3.734 -0.389,1.021 -0.948,2.016 -1.961,2.542 -1.217,0.631 -2.608,0.757 -3.885,1.216 -0.725,0.26 -0.692,0.462 -0.71,1.179 -0.021,0.87 0.54,1.182 1.007,1.869 0.426,0.628 0.749,1.314 0.98,2.036 0.103,0.322 0.439,0.569 0.58,0.888 0.186,0.418 0.25,0.883 0.185,1.336 -0.05,0.351 -0.224,0.627 -0.322,0.958 -0.1,0.336 -0.081,0.721 -0.145,1.067 C 4.647,-3.559 4.319,-2.717 3.795,-1.992 2.89,-0.738 1.548,-0.028 0,0 -1.808,-0.058 1.54,-0.028 0,0 m 29.186,-12.035 0,-0.047 c 0,-0.043 -0.584,-0.147 -0.656,-0.225 -0.915,-1.004 -13.689,-15.805 -14.589,-16.87 -0.127,-0.151 -0.837,-0.929 -1.035,-0.929 -6.607,0.004 -27.962,-0.004 -31.254,0 -0.87,0 -2.466,0.958 -2.466,1.857 l 0,31.573 c 0,1.813 2.413,2.786 3.341,2.786 0.532,0 30.369,0.017 30.403,-0.022 0.63,-0.735 16.256,-17.721 16.256,-18.123"
             inkscape:connector-curvature="0"
             id="path132"
             style="fill:#ffffff;fill-opacity:1;fill-rule:nonzero;stroke:none" /></g><g
           transform="translate(50.2132,1042.9906)"
           id="g134"><path
             d="m 0,0 c -5.615,-4.813 -11.188,-5.823 -14.873,-5.823 -7.212,0 -13.137,2.786 -16.02,5.172 -1.773,1.467 -2.733,3.304 -2.853,5.461 -0.048,0.872 0.347,1.234 0.597,1.376 0.177,-0.462 0.591,-1.483 1.136,-2.439 0.18,-0.323 0.378,-0.636 0.572,-0.923 0.198,-0.284 0.399,-0.538 0.581,-0.746 0.191,-0.201 0.348,-0.369 0.476,-0.468 0.123,-0.103 0.193,-0.162 0.193,-0.162 0,0 -0.065,0.064 -0.179,0.178 -0.118,0.107 -0.26,0.288 -0.43,0.5 -0.163,0.221 -0.339,0.486 -0.51,0.781 -0.167,0.298 -0.335,0.62 -0.485,0.951 -0.303,0.661 -0.554,1.344 -0.722,1.862 -0.082,0.252 -0.145,0.461 -0.189,0.612 l -0.2,0.004 -0.307,0.248 0,0.425 0.218,0 0.106,-0.202 c -0.003,0.01 -0.312,0.952 0.044,1.663 0.218,0.438 0.654,0.491 0.929,0.509 0.312,-2.239 4.702,-8.975 16.907,-8.975 10.668,0 14.605,6.7 15.629,8.974 C 0.565,8.616 0.487,8.111 0.32,7.529 0.247,7.217 0.124,6.888 0.014,6.536 -0.128,6.197 -0.247,5.823 -0.429,5.464 -0.515,5.283 -0.603,5.097 -0.692,4.91 -0.788,4.726 -0.896,4.546 -0.999,4.361 -1.195,3.985 -1.449,3.637 -1.687,3.278 -1.924,2.917 -2.215,2.598 -2.473,2.26 -2.75,1.938 -3.049,1.645 -3.324,1.347 -3.614,1.064 -3.917,0.815 -4.193,0.565 -4.462,0.307 -4.767,0.126 -5.022,-0.076 -5.287,-0.264 -5.517,-0.457 -5.75,-0.584 -5.976,-0.721 -6.173,-0.84 -6.335,-0.939 -6.66,-1.136 -6.846,-1.248 -6.846,-1.248 c 0,0 0.189,0.106 0.521,0.291 0.166,0.093 0.368,0.206 0.599,0.335 0.239,0.119 0.475,0.304 0.748,0.484 0.263,0.193 0.577,0.365 0.857,0.615 0.286,0.242 0.601,0.482 0.904,0.758 0.288,0.29 0.601,0.577 0.893,0.893 0.273,0.332 0.581,0.647 0.835,1.005 0.255,0.356 0.526,0.702 0.74,1.078 0.112,0.185 0.229,0.366 0.333,0.55 0.098,0.188 0.195,0.374 0.29,0.557 0.199,0.361 0.336,0.737 0.494,1.082 0.126,0.356 0.265,0.688 0.353,1.007 0.204,0.63 0.31,1.175 0.38,1.558 0.006,0.034 0.01,0.059 0.014,0.091 C 1.62,8.471 2.23,7.467 2.45,6.146 2.764,4.26 1.619,1.388 0,0 m -27.859,-3.193 c 1.231,-0.641 2.64,-1.243 4.203,-1.744 l 0.235,-3.909 0.226,3.771 c 0.626,-0.19 1.271,-0.365 1.941,-0.518 0.365,-3.522 0.138,-5.676 -0.694,-6.578 -0.308,-0.332 -0.691,-0.484 -1.19,-0.474 -2.19,0.059 -3.948,0.949 -4.702,2.381 -0.591,1.123 -0.246,5.195 -0.019,7.071 m 11.604,-17.295 c -11.553,0 -14.856,10.171 -14.856,13.725 0,2.819 0.515,4.522 0.728,5.107 0.602,-0.432 1.29,-0.868 2.061,-1.291 -0.127,-1.017 -0.716,-5.52 0.049,-6.973 0.837,-1.591 2.752,-2.071 5.121,-2.071 l 0.071,0 c 0.603,0 1.104,-0.359 1.493,0.06 0.933,1.011 1.199,2.894 0.837,6.52 1.83,-0.382 3.799,-0.759 5.878,-0.759 3.318,0 8.131,0.731 13.145,4.275 0.3,-0.371 0.886,-1.516 0.886,-4.526 0,-4.044 -3.86,-14.067 -15.413,-14.067 m 17.519,1.806 c -0.072,0.034 -0.148,0.069 -0.227,0.106 -0.154,0.048 -0.316,0.102 -0.479,0.143 -0.657,0.156 -1.316,0.151 -1.316,0.151 0,0 0.163,-0.027 0.399,-0.092 0.237,-0.058 0.545,-0.166 0.839,-0.291 0.144,-0.068 0.282,-0.145 0.411,-0.213 0.116,-0.083 0.225,-0.161 0.318,-0.228 0.082,-0.087 0.147,-0.155 0.19,-0.201 0.074,-0.777 -0.151,-1.464 -0.674,-2.042 -0.829,-0.917 -2.784,-1.988 -7.421,-1.896 -5.579,0.112 -7.079,1.806 -7.205,1.961 5.517,0.567 9.212,3.066 11.61,5.632 0.385,-0.15 2.954,-1.21 3.555,-3.03 m -26.926,-4.563 c -4.648,-0.095 -6.592,0.979 -7.422,1.896 -0.523,0.578 -0.747,1.265 -0.673,2.043 0.044,0.046 0.108,0.114 0.19,0.2 0.093,0.067 0.201,0.145 0.318,0.228 0.128,0.068 0.267,0.145 0.411,0.213 0.294,0.125 0.602,0.233 0.839,0.291 0.236,0.065 0.398,0.092 0.398,0.092 0,0 -0.658,0.005 -1.315,-0.151 -0.163,-0.041 -0.325,-0.095 -0.479,-0.143 -0.079,-0.037 -0.155,-0.072 -0.227,-0.106 0.555,1.683 2.777,2.682 3.411,2.937 2.384,-2.552 6.108,-5.036 11.738,-5.557 -0.216,-0.249 -1.799,-1.834 -7.189,-1.943 m 10.038,31.923 c 5.638,0 12.025,-1.655 11.106,-3.002 -0.919,-1.348 -2.635,-2.084 -3.247,-1.91 -0.613,0.173 0.551,1.603 0.551,1.603 0,0 -3.554,-3.513 -8.272,-3.513 -4.718,0 -8.517,3.452 -8.517,3.452 0,0 1.593,-1.655 0.582,-1.532 -1.012,0.123 -2.715,1.336 -3.278,1.9 -1.044,1.044 5.438,3.002 11.075,3.002 m -4.632,10.262 c 1.59,0 2.88,-2.086 2.88,-4.66 0,-2.575 -1.29,-4.661 -2.88,-4.661 -1.591,0 -2.88,2.086 -2.88,4.661 0,2.574 1.289,4.66 2.88,4.66 m 8.642,0 c 1.591,0 2.88,-2.086 2.88,-4.66 0,-2.575 -1.289,-4.661 -2.88,-4.661 -1.59,0 -2.879,2.086 -2.879,4.661 0,2.574 1.289,4.66 2.879,4.66 M 6.266,-4.251 C 5.445,-1.611 3.714,1.065 2.337,2.533 2.867,3.79 3.115,5.14 2.933,6.226 2.588,8.299 1.359,9.657 0.819,9.99 l -0.135,0.083 c -0.14,4.305 -3.368,16.006 -16.783,16.006 -13.22,0 -15.477,-12.429 -15.559,-16.665 -0.025,0.002 -0.066,0.006 -0.136,0.006 -0.306,0 -1.058,-0.082 -1.435,-0.837 -0.338,-0.674 -0.186,-1.519 -0.081,-1.921 -0.438,-0.215 -0.987,-0.774 -0.925,-1.878 0.044,-0.793 0.202,-1.542 0.457,-2.251 -0.674,-0.713 -3.087,-3.379 -4.501,-6.416 -1.655,-3.554 -1.226,-9.314 0.428,-9.314 1.655,0 3.856,3.615 3.856,3.615 0,0 0.86,-2.842 3.4,-5.74 -0.537,-0.209 -3.351,-1.418 -3.643,-3.85 -0.113,-0.943 0.16,-1.809 0.791,-2.506 1.225,-1.353 3.723,-2.063 7.243,-2.063 0.181,0 0.365,0.001 0.552,0.005 6.121,0.124 7.717,2.303 7.775,2.387 l -0.506,0.04 c 0.675,-0.06 1.37,-0.098 2.101,-0.098 0.643,0 1.256,0.034 1.856,0.082 0.379,-0.453 2.25,-2.3 7.72,-2.411 0.186,-0.004 0.37,-0.005 0.551,-0.005 3.52,0 6.019,0.71 7.244,2.063 0.63,0.697 0.904,1.563 0.791,2.506 -0.273,2.272 -2.989,3.563 -3.818,3.907 2.631,2.979 3.547,5.924 3.547,5.924 0,0 1.716,-3.549 3.615,-3.672 1.9,-0.122 1.9,6.005 1.042,8.762"
             inkscape:connector-curvature="0"
             id="path136"
             style="fill:#ffffff;fill-opacity:1;fill-rule:nonzero;stroke:none" /></g><g
           transform="translate(37.9265,1057.7365)"
           id="g138"><path
             d="m 0,0 c 0.534,0 0.991,-0.532 1.187,-1.291 0.066,0.253 0.102,0.532 0.102,0.825 0,1.168 -0.577,2.115 -1.289,2.115 -0.712,0 -1.289,-0.947 -1.289,-2.115 0,-0.293 0.036,-0.572 0.102,-0.825 C -0.991,-0.532 -0.534,0 0,0"
             inkscape:connector-curvature="0"
             id="path140"
             style="fill:#ffffff;fill-opacity:1;fill-rule:nonzero;stroke:none" /></g><g
           transform="translate(31.2347,1057.6636)"
           id="g142"><path
             d="m 0,0 c 0.217,0 0.393,-0.176 0.393,-0.393 0,-0.218 -0.176,-0.394 -0.393,-0.394 -0.217,0 -0.393,0.176 -0.393,0.394 C -0.393,-0.176 -0.217,0 0,0 m 0,-2.509 c 0.712,0 1.289,0.947 1.289,2.116 0,1.168 -0.577,2.115 -1.289,2.115 -0.712,0 -1.289,-0.947 -1.289,-2.115 0,-1.169 0.577,-2.116 1.289,-2.116"
             inkscape:connector-curvature="0"
             id="path144"
             style="fill:#ffffff;fill-opacity:1;fill-rule:nonzero;stroke:none" /></g><g
           transform="translate(22.1908,986.267)"
           id="g146"><path
             d="m 0,0 c 0.001,0.077 -0.027,0.154 -0.043,0.236 -0.075,0.007 -0.135,0.022 -0.191,0.014 -0.14,-0.019 -0.28,-0.044 -0.417,-0.075 -4.151,-0.948 -7.32,-3.245 -9.48,-6.919 -2.977,-5.062 -2.507,-11.612 1.135,-16.186 0.271,-0.341 0.46,-0.381 0.835,-0.165 4.854,2.803 8.016,7.039 8.016,12.569 C -0.145,-7.001 -0.03,-3.51 0,0"
             inkscape:connector-curvature="0"
             id="path148"
             style="fill:#ffffff;fill-opacity:1;fill-rule:nonzero;stroke:none" /></g><g
           transform="translate(34.9791,979.5231)"
           id="g150"><path
             d="M 0,0 C 0.354,0.603 0.746,1.154 1.154,1.683 0.067,3.067 -1.288,4.253 -2.905,5.23 -4.414,6.143 -6.046,6.758 -7.838,7.017 -7.857,6.846 -7.885,6.711 -7.885,6.576 -7.887,3.71 -7.936,0.843 -7.865,-2.021 c 0.033,-1.362 0.153,-2.753 0.478,-4.071 1.108,-4.496 3.594,-8.009 7.707,-10.278 0.263,-0.145 0.454,-0.245 0.708,0.079 0.033,0.042 0.058,0.086 0.09,0.128 C -2.507,-11.59 -2.972,-5.054 0,0"
             inkscape:connector-curvature="0"
             id="path152"
             style="fill:#ffffff;fill-opacity:1;fill-rule:nonzero;stroke:none" /></g><g
           transform="translate(24.5859,968.5864)"
           id="g154"><path
             d="M 0,0 C -1.085,-4.029 -3.613,-6.805 -6.891,-9.019 -2.401,-11.6 3.473,-11.158 6.874,-8.982 3.598,-6.797 1.116,-4.004 0,0"
             inkscape:connector-curvature="0"
             id="path156"
             style="fill:#ffffff;fill-opacity:1;fill-rule:nonzero;stroke:none" /></g><g
           transform="translate(45.1103,986.267)"
           id="g158"><path
             d="M 0,0 C 0.001,0.077 -0.027,0.154 -0.042,0.236 -0.118,0.243 -0.178,0.258 -0.234,0.25 -0.374,0.231 -0.513,0.206 -0.651,0.175 c -3.47,-0.793 -6.244,-2.542 -8.326,-5.236 1.188,-1.512 2.056,-3.262 2.555,-5.264 1.145,-4.587 0.31,-8.813 -2.591,-12.582 0.006,-0.007 0.011,-0.015 0.017,-0.023 0.271,-0.341 0.46,-0.381 0.835,-0.165 4.854,2.803 7.548,7.059 8.016,12.569 C 0.151,-7.039 -0.03,-3.51 0,0"
             inkscape:connector-curvature="0"
             id="path160"
             style="fill:#ffffff;fill-opacity:1;fill-rule:nonzero;stroke:none" /></g><g
           transform="translate(61.6081,975.9424)"
           id="g162"><path
             d="m 0,0 c -0.957,3.833 -3.232,6.766 -6.614,8.811 -1.51,0.912 -3.141,1.527 -4.934,1.786 -0.019,-0.17 -0.046,-0.305 -0.046,-0.44 -0.003,-2.866 -0.051,-5.733 0.019,-8.597 0.034,-1.362 0.154,-2.753 0.479,-4.071 1.108,-4.496 3.594,-8.009 7.706,-10.278 0.264,-0.146 0.455,-0.245 0.708,0.078 C 0.299,-8.91 1.158,-4.639 0,0"
             inkscape:connector-curvature="0"
             id="path164"
             style="fill:#ffffff;fill-opacity:1;fill-rule:nonzero;stroke:none" /></g><g
           transform="translate(47.5056,968.5864)"
           id="g166"><path
             d="M 0,0 C -1.085,-4.029 -3.613,-6.805 -6.891,-9.019 -2.401,-11.6 3.473,-11.158 6.874,-8.982 3.598,-6.797 1.116,-4.004 0,0"
             inkscape:connector-curvature="0"
             id="path168"
             style="fill:#ffffff;fill-opacity:1;fill-rule:nonzero;stroke:none" /></g><g
           transform="translate(51.909,908.5727)"
           id="g170"><path
             d="m 0,0 c -1.676,0 -1.507,2.931 -3.695,2.931 -2.389,0 -3.68,-2.892 -5.275,-8.657 l 3.339,0.041 -0.236,-0.888 -3.391,0 -4.332,-14.346 c -2.155,-7.061 -4.348,-11.554 -9.774,-11.554 -2.433,0 -4.189,1.106 -4.189,2.741 0,0.759 0.559,1.313 1.317,1.313 0.797,0 1.277,-0.523 1.277,-1.44 0,-0.239 -0.081,-0.521 -0.081,-0.8 0,-0.477 0.679,-0.998 1.836,-0.998 3.351,0 4.946,3.957 7.141,11.178 l 4.251,13.906 -3.71,0 0.222,0.888 3.738,-0.03 c 1.885,6.34 4.755,9.495 8.225,9.495 2.768,0 4.294,-1.66 4.294,-2.857 C 0.957,0.366 0.597,0 0,0 m -25.261,-15.563 0.407,0.095 c 0.125,0.031 0.219,-0.032 0.282,-0.188 l 0.782,-1.534 c 0.627,-1.159 1.065,-1.942 2.725,-1.942 1.095,0 2.474,0.658 2.474,2.129 0,1.409 -0.689,2.224 -3.038,2.881 -1.848,0.532 -3.695,1.503 -3.695,3.977 0,2.16 2.035,3.82 4.384,3.82 1.502,0 2.317,-0.375 2.881,-0.657 0.469,-0.22 0.532,-0.377 0.563,-0.565 l 0.469,-2.191 c 0,-0.125 -0.062,-0.219 -0.218,-0.282 l -0.376,-0.125 c -0.126,-0.032 -0.187,0 -0.282,0.156 l -1.064,1.441 c -0.376,0.595 -0.971,1.222 -2.192,1.222 -1.19,0 -2.411,-0.722 -2.411,-2.068 0,-1.816 1.472,-2.16 3.005,-2.599 2.286,-0.657 3.727,-1.597 3.758,-4.008 -0.031,-2.536 -2.097,-4.133 -4.759,-4.133 -1.535,0 -2.787,0.626 -3.163,0.908 -0.156,0.094 -0.156,0.283 -0.187,0.439 l -0.533,2.975 c -0.031,0.156 0.062,0.218 0.188,0.249 M -3.528,7.563 c -3.991,0 -7.304,-2.387 -8.844,-5.803 -2.635,1.753 -5.743,2.779 -9.146,2.779 -9.187,0 -16.608,-7.448 -16.608,-16.635 0,-0.672 0.065,-1.332 0.142,-1.984 -4.205,-1.262 -7.305,-4.908 -7.305,-9.51 0,-5.614 4.6,-9.983 10.214,-9.983 l 31.378,0 c 5.615,0 9.788,4.144 9.788,9.758 l 0,21.549 c 0,5.429 -4.191,9.829 -9.619,9.829"
             inkscape:connector-curvature="0"
             id="path172"
             style="fill:#ffffff;fill-opacity:1;fill-rule:nonzero;stroke:none" /></g><g
           transform="translate(44.7718,749.2722)"
           id="g174"><path
             d="m 0,0 c 2.236,0 4.033,-1.797 4.033,-4.033 0,-2.236 -1.797,-4.033 -4.033,-4.033 -1.555,0 -2.898,0.867 -3.572,2.149 0.664,-0.268 1.328,-0.533 1.991,-0.802 1.643,-0.661 3.516,0.133 4.176,1.778 0.661,1.644 -0.141,3.509 -1.785,4.169 l -1.68,0.674 C -0.59,-0.037 -0.299,0 0,0 m -28.89,11.88 c 1.549,0 3.167,-0.866 3.844,-2.141 l -1.726,0.802 0,-0.008 c -2,0.58 -3.215,-0.209 -3.86,-1.816 -0.646,-1.607 -1.14,-3.425 1.86,-4.124 l 0,-0.007 1.227,-0.682 c -0.279,-0.06 -0.809,-0.098 -1.107,-0.098 -2.236,0 -4.152,1.798 -4.152,4.033 0,2.236 1.678,4.041 3.914,4.041 m 41.383,0.961 c 2.718,0 4.926,-2.208 4.926,-4.926 0,-2.718 -2.208,-4.919 -4.926,-4.919 -2.718,0 -4.926,2.201 -4.926,4.919 0,2.718 2.208,4.926 4.926,4.926 m 0,2.421 c -4.034,0 -7.311,-3.253 -7.348,-7.279 L 0.568,1.423 C 0.381,1.442 0.191,1.453 0,1.453 -1.023,1.453 -1.979,1.172 -2.8,0.681 L -23.533,9.02 c -0.542,2.459 -2.74,4.313 -5.357,4.313 -3.022,0 -5.486,-2.472 -5.486,-5.494 0,-3.021 2.464,-5.486 5.486,-5.486 1.023,0 1.979,0.281 2.8,0.772 l 20.733,-8.323 c 0.536,-2.466 2.735,-4.321 5.357,-4.321 2.841,0 5.184,2.177 5.456,4.949 l 7.037,5.145 c 4.056,0 7.347,3.285 7.347,7.34 0,4.057 -3.291,7.347 -7.347,7.347 m 3.954,-7.324 c 0,-2.172 -1.763,-3.935 -3.935,-3.935 -2.171,0 -3.934,1.763 -3.934,3.935 0,2.172 1.763,3.934 3.934,3.934 2.172,0 3.935,-1.762 3.935,-3.934"
             inkscape:connector-curvature="0"
             id="path176"
             style="fill:#ffffff;fill-opacity:1;fill-rule:nonzero;stroke:none" /></g><g
           transform="translate(45.3606,663.8677)"
           id="g178"><path
             d="m 0,0 c -0.932,-0.444 -1.753,-1.194 -3.084,-1.194 -3.182,0 -4.277,0.514 -4.277,5.968 l 0,15.358 9,0 0,7 -9,0 0,13.451 c 0,0 -7.356,-0.667 -7.477,-0.667 -0.12,0 -0.764,-0.107 -0.793,-0.376 -0.43,-3.91 -0.73,-11.192 -9.73,-13.514 l 0,-5.894 6.263,0 0.074,-16.705 c 0,-5.609 2.206,-13.202 13.13,-13.016 3.685,0.064 7.376,2.271 8.281,3.601 L 0,0 z"
             inkscape:connector-curvature="0"
             id="path180"
             style="fill:#ffffff;fill-opacity:1;fill-rule:nonzero;stroke:none" /></g><g
           transform="translate(60.4012,626.1411)"
           id="g182"><path
             d="m 0,0 c -1.774,-0.858 -3.661,-1.412 -5.66,-1.668 2.037,1.311 3.601,3.376 4.341,5.852 -1.906,-1.208 -4.015,-2.072 -6.262,-2.577 -1.788,2.068 -4.355,3.358 -7.177,3.358 -5.435,0 -9.84,-4.738 -9.84,-10.596 0,-0.822 0.085,-1.636 0.248,-2.401 -8.162,0.421 -15.424,4.655 -20.28,11.052 -1.017,-1.208 -1.959,-3.095 -1.959,-5.043 0,-3.667 2.331,-7.817 4.977,-9.689 -1.617,0.065 -2.789,1.497 -5.789,2.298 l 0,-0.145 c 0,-5.123 4.351,-9.774 8.852,-10.763 -0.824,-0.24 -1.493,-0.35 -2.396,-0.35 -0.632,0 -1.131,0.044 -1.739,0.189 1.247,-4.224 4.935,-7.292 9.24,-7.355 -3.368,-2.856 -7.584,-4.533 -12.195,-4.533 -0.796,0 -1.272,0.103 -2.04,0.204 4.353,-3.02 9.509,-4.306 15.079,-4.306 18.097,0 26.917,15.069 26.917,29.067 0,0.448 -0.009,0.901 -0.031,1.355 C -3.794,-4.537 -1.319,-2.119 0,0"
             inkscape:connector-curvature="0"
             id="path184"
             style="fill:#ffffff;fill-opacity:1;fill-rule:nonzero;stroke:none" /></g><g
           transform="translate(10.0433,558)"
           id="g186"><path
             d="M 0,0 17.548,0 34.579,-29.093 26.063,-43.964 0,0 z"
             inkscape:connector-curvature="0"
             id="path188"
             style="fill:#ffffff;fill-opacity:1;fill-rule:nonzero;stroke:none" /></g><g
           transform="translate(35.8485,544)"
           id="g190"><path
             d="M 0,0 17.548,0 26.579,14 8.774,14 0,0 z"
             inkscape:connector-curvature="0"
             id="path192"
             style="fill:#ffffff;fill-opacity:1;fill-rule:nonzero;stroke:none" /></g><g
           transform="translate(33.0078,375)"
           id="g194"><path
             d="m 0,0 3.052,0 c 0,0 0.922,-0.236 1.393,0.271 0.433,0.466 0.419,1.172 0.419,1.172 0,0 -0.059,4.011 1.841,4.614 1.874,0.594 4.28,-4 6.83,-5.751 1.929,-1.324 3.394,-1.055 3.394,-1.055 l 6.82,0.084 c 0,0 3.567,0.215 1.875,3.02 -0.138,0.229 -0.985,2.072 -5.07,5.864 -4.276,3.968 -3.703,3.325 1.447,10.19 3.137,4.181 4.303,6.763 3.999,7.884 C 25.803,27.02 23.031,27 23.031,27 l -7.494,0 c -1.366,0 -1.564,-0.988 -1.564,-0.988 0,0 -1.216,-3.264 -2.836,-6.016 -3.419,-5.805 -4.768,-6.097 -5.345,-5.766 -0.853,0.49 -0.56,3.098 -0.56,5.166 0,8.041 -0.781,9.365 -5.621,9.365 -2.74,0 -5.098,-0.44 -6.411,-1.083 -0.874,-0.428 -1.547,-1.382 -1.137,-1.437 0.508,-0.068 1.657,-0.311 2.266,-1.14 0.787,-1.07 0.759,-3.474 0.759,-3.474 0,0 0.453,-6.623 -1.055,-7.446 -1.035,-0.564 -2.455,0.588 -5.503,5.855 -1.562,2.698 -2.741,5.68 -2.741,5.68 0,0 -0.227,0.616 -0.633,0.914 -0.492,0.361 -1.471,0.37 -1.471,0.37 l -6.557,0 c 0,0 -1.542,0.028 -1.945,-0.449 -0.358,-0.423 -0.028,-1.329 -0.028,-1.329 0,0 5.711,-13.04 12.179,-19.775 C -6.734,-0.728 0,0 0,0"
             inkscape:connector-curvature="0"
             id="path196"
             style="fill:#ffffff;fill-opacity:1;fill-rule:nonzero;stroke:none" /></g><g
           transform="translate(56,332.4877)"
           id="g198"><path
             d="m 0,0 0,0.002 c 0,0 0.008,-0.264 -0.01,-0.241 -0.008,0.009 0.016,-0.249 0.009,-0.249 l -0.008,0 c -0.183,0 -0.834,1.308 -1.307,1.659 -1.848,1.68 -5.037,1.593 -5.618,1.462 -0.582,-0.132 -1.527,-0.627 -1.28,-1.986 0.247,-1.36 1.466,-1.177 2.594,-1.088 0.985,0.078 1.96,-0.939 2.192,-1.111 0.004,-0.003 0.319,-0.936 0.525,-0.936 l -0.002,0 c 0,0 0.905,0.405 0.905,0.333 l 0,0.134 0,0.067 c 0,-0.322 0.289,-1.242 0.147,-2.153 -0.176,-1.117 -0.625,-2.305 0.712,-2.656 1.336,-0.35 1.849,0.557 2.024,1.126 C 1.056,-5.073 2,-1.976 0,0"
             inkscape:connector-curvature="0"
             id="path200"
             style="fill:#ffffff;fill-opacity:1;fill-rule:nonzero;stroke:none" /></g><g
           transform="translate(61.0215,337.2027)"
           id="g202"><path
             d="m 0,0 c 0,0 -0.814,1.12 -1.299,1.544 -0.05,0.054 -0.166,0.143 -0.166,0.143 -5.93,5.049 -11.972,3.129 -12.479,3.054 -0.552,-0.082 -1.366,-0.578 -1.313,-2.185 0.054,-1.607 1.965,-1.689 1.965,-1.689 4.277,1.257 7.514,-0.66 9.166,-2.038 0,0 4.824,-4.384 2.56,-10.589 0,0 -0.039,-1.913 1.561,-2.069 1.6,-0.156 2.147,0.625 2.264,1.171 C 2.366,-12.157 4.67,-6.244 0,0"
             inkscape:connector-curvature="0"
             id="path204"
             style="fill:#ffffff;fill-opacity:1;fill-rule:nonzero;stroke:none" /></g><g
           transform="translate(34.2357,303.8099)"
           id="g206"><path
             d="m 0,0 c -8.503,-1.186 -16.026,2.367 -16.802,7.936 -0.777,5.569 5.486,11.044 13.989,12.23 C 5.69,21.352 13.213,17.799 13.99,12.231 14.766,6.662 8.503,1.186 0,0 m 18.717,17.827 c 0,0 -2.44,0.859 -2.606,1.132 -0.166,0.273 -0.058,0.888 0.215,1.434 0.273,0.547 0.458,2.166 0.4,2.791 -0.059,0.624 -0.108,2.048 -2.283,3.112 -2.176,1.064 -6.85,-0.088 -7.445,-0.341 -0.595,-0.254 -2.995,-1.036 -2.995,-1.036 0,0 -0.862,-0.468 -0.564,0.936 0.298,1.405 1.659,6.98 -3.447,6.894 -5.107,-0.085 -11.406,-4.979 -13.619,-7.149 -2.213,-2.17 -9.617,-9.575 -7.83,-17.704 0,0 0.809,-2.383 2.17,-3.788 1.362,-1.404 3.235,-3.532 7.533,-5.106 4.298,-1.575 8.299,-2.086 12.767,-2.086 4.469,0 10.937,1.405 15.534,4.724 4.596,3.319 6.511,6.767 6.681,9.15 0.17,2.383 -0.809,5.52 -4.511,7.037"
             inkscape:connector-curvature="0"
             id="path208"
             style="fill:#ffffff;fill-opacity:1;fill-rule:nonzero;stroke:none" /></g><g
           transform="translate(36.0144,310.8335)"
           id="g210"><path
             d="M 0,0 C -0.744,0 -1.346,0.603 -1.346,1.346 -1.346,2.09 -0.744,2.693 0,2.693 0.744,2.693 1.346,2.09 1.346,1.346 1.346,0.603 0.743,0 0,0 m -6.615,0.234 c -1.552,0 -2.81,1.258 -2.81,2.81 0,1.552 1.258,2.81 2.81,2.81 1.552,0 2.81,-1.258 2.81,-2.81 0,-1.552 -1.258,-2.81 -2.81,-2.81 M 4.098,3.939 c -0.797,3.799 -5.036,6.125 -9.47,5.195 -4.434,-0.929 -7.382,-4.762 -6.586,-8.561 0.796,-3.798 5.036,-6.124 9.47,-5.195 4.433,0.93 7.382,4.763 6.586,8.561"
             inkscape:connector-curvature="0"
             id="path212"
             style="fill:#ffffff;fill-opacity:1;fill-rule:nonzero;stroke:none" /></g><g
           transform="translate(56.389,260.8974)"
           id="g214"><path
             d="m 0,0 c 1.787,-3.261 2.804,-7.003 2.804,-10.984 0,-8.446 -4.577,-15.82 -11.384,-19.789 l 6.993,20.219 c 1.306,3.266 1.741,5.877 1.741,8.2 C 0.154,-1.511 0.098,-0.729 0,0 m -16.935,-0.249 c 1.378,0.072 2.62,0.217 2.62,0.217 1.234,0.146 1.088,1.959 -0.146,1.887 0,0 -3.708,-0.291 -6.102,-0.291 -2.249,0 -6.03,0.291 -6.03,0.291 -1.234,0.072 -1.379,-1.814 -0.145,-1.887 0,0 1.168,-0.145 2.401,-0.217 l 3.567,-9.774 -5.011,-15.026 -8.336,24.8 c 1.379,0.072 2.62,0.217 2.62,0.217 1.232,0.146 1.087,1.959 -0.147,1.887 0,0 -3.708,-0.291 -6.102,-0.291 -0.429,0 -0.936,0.011 -1.473,0.028 4.094,6.215 11.13,10.319 19.129,10.319 5.96,0 11.387,-2.279 15.46,-6.011 -0.099,0.006 -0.195,0.018 -0.296,0.018 -2.249,0 -3.845,-1.959 -3.845,-4.063 0,-1.887 1.089,-3.483 2.249,-5.37 0.871,-1.524 1.887,-3.483 1.887,-6.314 0,-1.959 -0.753,-4.233 -1.742,-7.401 l -2.284,-7.63 -8.274,24.611 z M -20.09,-33.88 c -2.247,0 -4.417,0.33 -6.468,0.933 l 6.87,19.961 7.037,-19.28 c 0.046,-0.113 0.103,-0.218 0.164,-0.316 -2.38,-0.837 -4.937,-1.298 -7.603,-1.298 m -22.895,22.896 c 0,3.32 0.713,6.471 1.983,9.318 l 10.921,-29.922 c -7.638,3.71 -12.904,11.542 -12.904,20.604 M -20.09,14.48 c -14.041,0 -25.465,-11.423 -25.465,-25.464 0,-14.041 11.424,-25.465 25.465,-25.465 14.041,0 25.465,11.424 25.465,25.465 0,14.041 -11.424,25.464 -25.465,25.464"
             inkscape:connector-curvature="0"
             id="path216"
             style="fill:#ffffff;fill-opacity:1;fill-rule:nonzero;stroke:none" /></g><g
           transform="translate(14.2139,199.604)"
           id="g218"><path
             d="M 0,0 C 0,0 3.118,-0.407 5.457,0 L 17.455,-19.522 29.351,0 c 0,0 2.643,-0.305 5.795,0 l -14.36,-25.604 0,-18 c 0,0 -3.153,0.407 -6,0 l 0,18 L 0,0 z"
             inkscape:connector-curvature="0"
             id="path220"
             style="fill:#ffffff;fill-opacity:1;fill-rule:nonzero;stroke:none" /></g><g
           transform="translate(58.1922,198.8635)"
           id="g222"><path
             d="m 0,0 c 3.875,-0.415 1.932,-4.575 1.322,-7.727 -0.61,-3.152 -5.796,-26.64 -5.796,-26.64 0,0 -0.966,0.661 -1.779,0.254 0,0 2.237,25.826 2.796,30.097 C -2.898,0.254 -1.423,0.153 0,0"
             inkscape:connector-curvature="0"
             id="path224"
             style="fill:#ffffff;fill-opacity:1;fill-rule:nonzero;stroke:none" /></g><g
           transform="translate(54.4453,157.7535)"
           id="g226"><path
             d="m 0,0 c 0,-1.572 -1.275,-2.847 -2.847,-2.847 -1.572,0 -2.847,1.275 -2.847,2.847 0,1.572 1.275,2.847 2.847,2.847 C -1.275,2.847 0,1.572 0,0"
             inkscape:connector-curvature="0"
             id="path228"
             style="fill:#ffffff;fill-opacity:1;fill-rule:nonzero;stroke:none" /></g><g
           transform="translate(58.9464,130)"
           id="g230"><path
             d="M 0,0 -10.734,0 -27.81,-29.228 -16.101,-50 -5.367,-50 -17.076,-29.228 0,0 z"
             inkscape:connector-curvature="0"
             id="path232"
             style="fill:#ffffff;fill-opacity:1;fill-rule:nonzero;stroke:none" /></g><g
           transform="translate(14.6984,96)"
           id="g234"><path
             d="M 0,0 9.62,0 18.552,14.665 12.535,25 2.915,25 8.933,14.665 0,0 z"
             inkscape:connector-curvature="0"
             id="path236"
             style="fill:#ffffff;fill-opacity:1;fill-rule:nonzero;stroke:none" /></g><g
           transform="translate(36.7399,22.5479)"
           id="g238"><path
             d="m 0,0 c -5.761,0 -10.449,4.688 -10.449,10.449 0,5.762 4.688,10.45 10.449,10.45 5.761,0 10.449,-4.688 10.449,-10.45 C 10.449,4.688 5.761,0 0,0 m 0.666,35.445 c -14.546,0 -26.38,-11.212 -26.38,-24.996 0,-13.783 11.834,-24.997 26.38,-24.997 3.907,0 7.669,0.791 11.182,2.351 1.241,0.551 1.801,2.003 1.25,3.245 -0.553,1.242 -2.008,1.8 -3.245,1.249 -2.882,-1.279 -5.972,-1.928 -9.187,-1.928 -11.834,0 -21.463,9.008 -21.463,20.08 0,11.072 9.629,20.079 21.463,20.079 11.834,0 21.462,-9.007 21.462,-20.079 0,-3.51 -0.635,-9.848 -4.884,-12.842 -0.258,-0.181 -0.663,-0.371 -0.896,-0.253 -0.4,0.208 -1.088,1.179 -1.088,2.902 l 0,22.435 c 0,1.358 -1.142,2.459 -2.5,2.459 -1.358,0 -2.5,-1.101 -2.5,-2.459 l 0,-1.007 c -2,2.555 -6.318,4.132 -10.355,4.132 -8.473,0 -15.319,-6.893 -15.319,-15.367 0,-8.473 6.917,-15.366 15.39,-15.366 4.063,0 7.764,1.596 10.515,4.18 0.254,-2.858 1.598,-5.215 3.64,-6.274 1.862,-0.965 4.03,-0.749 5.942,0.599 4.494,3.166 6.971,9.154 6.971,16.861 0,13.784 -11.832,24.996 -26.378,24.996"
             inkscape:connector-curvature="0"
             id="path240"
             style="fill:#ffffff;fill-opacity:1;fill-rule:nonzero;stroke:none" /></g><g
           transform="translate(7.6294,1238.9492)"
           id="g242"><path
             d="m 0,0 c -2.028,0 -2.398,-1.826 -2.398,-3.146 0,-1.319 0.37,-3.149 2.398,-3.149 2.028,0 2.398,1.83 2.398,3.149 C 2.398,-1.826 2.028,0 0,0 m 0,-8.585 c -2.682,0 -5.102,1.707 -5.102,5.439 0,3.732 2.42,5.44 5.102,5.44 2.682,0 5.098,-1.708 5.098,-5.44 0,-3.732 -2.416,-5.439 -5.098,-5.439"
             inkscape:connector-curvature="0"
             id="path244"
             style="fill:#ffffff;fill-opacity:1;fill-rule:nonzero;stroke:none" /></g><g
           transform="translate(14.588,1240.9712)"
           id="g246"><path
             d="m 0,0 2.581,0 0,-1.212 c 0.493,0.655 1.704,1.424 2.841,1.424 0.107,0 0.24,0 0.352,-0.014 l 0,-2.549 -0.133,0 c -1.179,0 -2.47,-0.184 -2.887,-1.1 l 0,-6.856 -2.754,0 L 0,0 z"
             inkscape:connector-curvature="0"
             id="path248"
             style="fill:#ffffff;fill-opacity:1;fill-rule:nonzero;stroke:none" /></g><g
           transform="translate(23.7698,1233.7325)"
           id="g250"><path
             d="m 0,0 c 0,-0.694 0.435,-1.341 1.222,-1.341 0.852,0 1.683,0.352 2.513,1.086 l 0,2.441 C 1.201,1.873 0,1.219 0,0 m 3.8,-2.172 c -1.05,-0.69 -2.186,-1.024 -3.408,-1.024 -1.924,0 -3.063,1.28 -3.063,2.998 0,2.308 2.121,3.527 6.493,4.02 l 0,0.575 c 0,0.748 -0.568,1.186 -1.618,1.186 -1.05,0 -1.902,-0.417 -2.517,-1.186 l -1.83,1.043 c 0.96,1.344 2.423,2.017 4.39,2.017 2.689,0 4.199,-1.165 4.199,-3.06 0,0 -0.003,-7.453 0,-7.471 l -2.405,0 -0.241,0.902 z"
             inkscape:connector-curvature="0"
             id="path252"
             style="fill:#ffffff;fill-opacity:1;fill-rule:nonzero;stroke:none" /></g><g
           transform="translate(32.3598,1240.6965)"
           id="g254"><path
             d="m 0,0 2.247,0.309 0.248,-1.222 c 1.266,0.927 2.272,1.42 3.538,1.42 2.121,0 3.217,-1.125 3.217,-3.354 l 0,-7.176 -2.714,0 0,6.705 c 0,1.261 -0.327,1.83 -1.309,1.83 -0.808,0 -1.617,-0.367 -2.541,-1.144 l 0,-7.391 -2.686,0 L 0,0 z"
             inkscape:connector-curvature="0"
             id="path256"
             style="fill:#ffffff;fill-opacity:1;fill-rule:nonzero;stroke:none" /></g><g
           transform="translate(53.0887,1241.0079)"
           id="g258"><path
             d="m 0,0 0,-9.761 c 0,-1.718 -0.137,-4.562 -5.044,-4.588 -2.028,-0.014 -3.908,0.799 -4.282,2.568 l 2.675,0.431 c 0.111,-0.507 0.424,-1.01 1.941,-1.01 1.406,0 2.082,0.672 2.082,2.283 l 0,1.2 -0.036,0.036 c -0.431,-0.773 -1.086,-1.503 -2.66,-1.503 -2.406,0 -4.297,1.669 -4.297,5.152 0,3.448 1.952,5.379 4.142,5.383 2.06,0.003 2.819,-0.935 2.998,-1.428 L -2.517,-1.233 -2.29,0 0,0 z m -4.839,-8.129 c 2.056,0.015 2.232,2.111 2.232,3.473 0,1.618 -0.787,2.923 -2.25,2.923 -0.974,0 -2.064,-0.712 -2.064,-3.034 0,-1.269 0.09,-3.38 2.082,-3.362"
             inkscape:connector-curvature="0"
             id="path260"
             style="fill:#ffffff;fill-opacity:1;fill-rule:nonzero;stroke:none" /></g><g
           transform="translate(61.6101,1237.1844)"
           id="g262"><path
             d="M 0,0 C 0,1.377 -0.791,2.189 -2.078,2.189 -3.304,2.189 -4.07,1.395 -4.178,0 L 0,0 z m -2.035,-6.709 c -3.038,0 -4.85,1.956 -4.85,5.346 0,3.43 1.834,5.382 4.807,5.382 2.973,0 4.742,-1.894 4.742,-5.245 0,-0.18 -0.022,-0.356 -0.022,-0.532 l -6.863,0 c 0.018,-1.956 0.831,-2.941 2.427,-2.941 1.025,0 1.704,0.413 2.34,1.319 l 1.985,-1.1 C 1.657,-5.943 0.083,-6.709 -2.035,-6.709"
             inkscape:connector-curvature="0"
             id="path264"
             style="fill:#ffffff;fill-opacity:1;fill-rule:nonzero;stroke:none" /></g><g
           transform="translate(62.6448,1244.8824)"
           id="g266"><path
             d="m 0,0 0,-0.453 1.064,0 0,-2.955 0.565,0 0,2.955 1.067,0 L 2.696,0 0,0 z m 6.274,0 -1,-2.585 L 4.257,0 l -0.87,0 0,-3.408 0.564,0 0,2.844 0.015,0 1.118,-2.844 0.359,0 1.111,2.844 0.018,0 0,-2.844 0.561,0 0,3.408 -0.859,0 z"
             inkscape:connector-curvature="0"
             id="path268"
             style="fill:#ffffff;fill-opacity:1;fill-rule:nonzero;stroke:none" /></g><g
           transform="translate(46.6582,2286.5266)"
           id="g270"><path
             d="M 0,0 -1.037,-5.366 C -1.161,-5.95 -1.896,-6.527 -2.579,-6.527 l -9.624,0 c -1.083,0 -1.455,-0.706 -1.455,-1.788 l 0,-1.179 c 0,-1.082 0.377,-2.033 1.46,-2.033 l 8.166,0 c 0.765,0 1.515,-0.747 1.35,-1.563 -0.166,-0.818 -0.943,-4.823 -1.036,-5.27 -0.093,-0.447 -0.606,-1.167 -1.515,-1.167 l -6.665,0 c -1.214,0 -1.581,-0.158 -2.393,-1.167 -0.813,-1.01 -8.169,-9.78 -8.169,-9.78 -0.074,-0.085 -0.198,-0.06 -0.198,0.032 l 0,30.631 c 0,0.691 0.706,1.284 1.606,1.284 l 19.826,0 C -0.496,1.473 0.186,0.896 0,0 m 0.87,-21.084 c 0.276,1.115 3.37,16.953 4.403,21.978 m -3.814,5.579 -24.705,0 c -3.41,0 -4.412,-2.242 -4.412,-3.856 l 0,-39.254 c 0,-1.819 0.977,-2.494 1.526,-2.716 0.55,-0.223 2.066,-0.41 2.974,0.638 0,0 11.664,13.61 11.864,13.81 0.303,0.303 0.303,0.378 0.606,0.378 l 7.547,0 c 3.171,0 3.68,2.186 4.011,3.518 0.276,1.116 3.37,16.755 4.403,21.78 0.789,3.834 -0.186,5.702 -3.814,5.702"
             inkscape:connector-curvature="0"
             id="path272"
             style="fill:#ffffff;fill-opacity:1;fill-rule:nonzero;stroke:none" /></g><g
           transform="translate(36.1641,2406.2625)"
           id="g274"><path
             d="m 0,0 -2.635,0 0,12.056 2.635,0 c 3.869,0 6.438,-2.2 6.438,-5.995 l 0,-0.067 C 6.438,2.167 3.869,0 0,0 m 13.078,6.098 0,0.066 c 0,6.84 -4.837,11.72 -13.177,11.72 l -9.008,0 0,-23.708 8.875,0 c 8.404,-0.001 13.31,5.082 13.31,11.922 M 0.2,-17.678 c -5.815,0 -11.134,2.119 -15.246,5.626 l -10.118,-1.21 3.909,9.457 c -1.362,2.997 -2.126,6.324 -2.126,9.835 0,13.093 10.558,23.708 23.581,23.708 13.024,0 23.581,-10.615 23.581,-23.708 0,-13.096 -10.557,-23.708 -23.581,-23.708"
             inkscape:connector-curvature="0"
             id="path276"
             style="fill:#ffffff;fill-opacity:1;fill-rule:nonzero;stroke:none" /></g><path
           d="m 19.063,821.644 33.875,0 0,6.967 -33.875,0 0,-6.967 z"
           inkscape:connector-curvature="0"
           id="path278"
           style="fill:#ffffff;fill-opacity:1;fill-rule:nonzero;stroke:none" /><path
           d="m 19.063,830.617 33.875,0 0,6.969 -33.875,0 0,-6.969 z"
           inkscape:connector-curvature="0"
           id="path280"
           style="fill:#ffffff;fill-opacity:1;fill-rule:nonzero;stroke:none" /><g
           transform="translate(47.5622,846.9644)"
           id="g282"><path
             d="M 0,0 -23.129,0 C -26.096,0 -28.5,-2.494 -28.5,-5.566 l 0,-1.81 33.875,0 0,1.81 C 5.375,-2.494 2.969,0 0,0"
             inkscape:connector-curvature="0"
             id="path284"
             style="fill:#ffffff;fill-opacity:1;fill-rule:nonzero;stroke:none" /></g><g
           transform="translate(19.0627,819.681)"
           id="g286"><path
             d="m 0,0 0,-1.809 c 0,-3.073 2.404,-5.567 5.371,-5.567 l 14.467,0 0,-7.358 7.1,7.358 1.562,0 c 2.968,0 5.375,2.494 5.375,5.567 L 33.875,0 0,0 z"
             inkscape:connector-curvature="0"
             id="path288"
             style="fill:#ffffff;fill-opacity:1;fill-rule:nonzero;stroke:none" /></g><g
           transform="translate(38.9913,456.6841)"
           id="g290"><path
             d="m 0,0 c 2.218,3.368 4.847,6.541 6.56,10.149 2.799,5.894 6.903,8.545 13.403,7.195 0.764,-0.159 1.589,-0.022 2.529,-0.022 -0.351,-2.514 -2.241,-4.065 -3.37,-5.966 C 15.325,4.959 11.411,-1.39 7.152,-7.485 c -3.925,-5.617 -9.62,-7.935 -16.506,-7.334 -1.246,0.109 -1.428,0.598 -1.422,1.641 0.054,8.465 0.015,16.931 0.129,25.396 0.048,3.574 1.767,5.057 5.409,5.105 4.433,0.059 4.446,0.059 4.464,-4.465 C -0.757,8.638 -0.77,4.417 -0.77,0.197 -0.514,0.131 -0.257,0.066 0,0"
             inkscape:connector-curvature="0"
             id="path292"
             style="fill:#ffffff;fill-opacity:1;fill-rule:nonzero;stroke:none" /></g><g
           transform="translate(25.7061,488.2591)"
           id="g294"><path
             d="M 0,0 C 0.185,2.255 0.39,4.989 3.001,5.581 5.593,6.168 7.099,3.937 8.116,1.751 9.207,-0.597 9.468,-3.044 8.457,-5.484 7.271,-8.348 5.17,-8.819 2.859,-6.768 0.873,-5.005 0.173,-2.664 0,0"
             inkscape:connector-curvature="0"
             id="path296"
             style="fill:#ffffff;fill-opacity:1;fill-rule:nonzero;stroke:none" /></g><g
           transform="translate(17.727,469.317)"
           id="g298"><path
             d="M 0,0 C 2.853,-0.014 5.699,-1.428 5.657,-3.078 5.594,-5.572 3.877,-7.056 1.74,-8.009 -0.794,-9.14 -3.411,-9.407 -5.988,-8.172 -8.46,-6.987 -8.87,-5.12 -7.108,-3.038 -5.266,-0.863 -2.808,0.013 0,0"
             inkscape:connector-curvature="0"
             id="path300"
             style="fill:#ffffff;fill-opacity:1;fill-rule:nonzero;stroke:none" /></g><g
           transform="translate(49.5389,486.3892)"
           id="g302"><path
             d="m 0,0 c -0.232,-4.019 -3.721,-7.949 -7.15,-8.138 -1.546,-0.085 -2.44,0.423 -2.921,2.004 -1.264,4.154 2.463,9.986 6.756,10.397 C -1.05,4.48 0.168,2.914 0,0"
             inkscape:connector-curvature="0"
             id="path304"
             style="fill:#ffffff;fill-opacity:1;fill-rule:nonzero;stroke:none" /></g><g
           transform="translate(16.1625,483.7912)"
           id="g306"><path
             d="M 0,0 C 3.483,-0.007 7.048,-2.347 8.189,-5.375 9.287,-8.29 8.155,-10.113 5.054,-10.173 1.356,-10.244 -1.451,-8.503 -3.222,-5.334 -5.073,-2.02 -3.775,0.007 0,0"
             inkscape:connector-curvature="0"
             id="path308"
             style="fill:#ffffff;fill-opacity:1;fill-rule:nonzero;stroke:none" /></g><g
           transform="translate(47.5395,1538.6241)"
           id="g310"><path
             d="m 0,0 c -2.546,0.067 -2.239,-0.269 -2.252,2.281 -0.015,2.823 -0.004,5.647 -0.004,8.47 0,0.283 0.002,0.565 -0.001,0.847 -0.021,2.517 -0.756,3.794 -2.473,4.303 -1.99,0.589 -4.281,-0.265 -5.459,-2.076 -0.748,-1.149 -1.127,-2.421 -1.124,-3.804 0.007,-2.894 -0.034,-5.788 0.021,-8.681 0.018,-0.983 -0.226,-1.387 -1.287,-1.346 -2.431,0.093 -2.114,-0.25 -2.128,2.178 -0.017,2.823 -0.004,5.646 -0.004,8.47 0,0.318 10e-4,0.635 -0.002,0.953 -0.019,2.371 -0.764,3.749 -2.29,4.235 -1.984,0.633 -4.314,-0.144 -5.556,-1.856 -0.907,-1.25 -1.241,-2.68 -1.251,-4.192 -0.018,-2.858 -0.04,-5.718 0.008,-8.576 0.015,-0.927 -0.28,-1.237 -1.211,-1.209 -2.523,0.077 -2.189,-0.258 -2.197,2.214 -0.016,5.012 -0.007,10.024 -0.004,15.035 10e-4,1.446 0.006,1.449 1.485,1.451 2.133,0.004 1.893,0.079 1.911,-1.871 0.003,-0.274 0.035,-0.547 0.068,-1.028 0.544,0.572 0.917,0.992 1.32,1.382 2.789,2.702 8.109,2.72 10.169,-1.061 0.33,-0.606 0.539,-0.433 0.891,-0.022 1.678,1.959 3.808,2.979 6.403,2.981 3.349,0.003 5.519,-1.895 5.931,-5.232 C 1.081,12.903 1.136,11.948 1.142,10.998 1.163,7.715 1.127,4.433 1.164,1.151 1.174,0.274 0.873,-0.023 0,0 m 6.248,25.536 c -4.969,4.638 -11.044,6.49 -17.748,6.504 -1.345,10e-4 -2.682,-0.052 -4.013,-0.249 C -24.566,30.453 -31.7,26.142 -36.298,18.106 -39.074,13.253 -39.97,8.032 -38.26,2.597 c 2.179,-6.927 7.276,-10.876 13.895,-13.133 3.827,-1.305 7.79,-1.642 11.801,-1.288 1.079,0.095 1.357,-0.257 1.269,-1.26 -0.079,-0.911 0.024,-1.836 -0.028,-2.751 -0.049,-0.881 0.241,-1.037 1.043,-0.724 2.435,0.952 4.835,1.971 7.115,3.259 5.703,3.223 10.483,7.383 13.592,13.268 4.664,8.828 3.105,18.769 -4.179,25.568"
             inkscape:connector-curvature="0"
             id="path312"
             style="fill:#ffffff;fill-opacity:1;fill-rule:nonzero;stroke:none" /></g><g
           transform="translate(25.099,1473.4982)"
           id="g314"><path
             d="m 0,0 c 0,-3.718 -3.014,-6.732 -6.732,-6.732 -3.717,0 -6.731,3.014 -6.731,6.732 0,3.718 3.014,6.732 6.731,6.732 C -3.014,6.732 0,3.718 0,0"
             inkscape:connector-curvature="0"
             id="path316"
             style="fill:#ffffff;fill-opacity:1;fill-rule:nonzero;stroke:none" /></g><g
           transform="translate(42.7823,1475.4728)"
           id="g318"><path
             d="m 0,0 c 0,-4.158 -3.371,-7.529 -7.529,-7.529 -4.158,0 -7.529,3.371 -7.529,7.529 0,4.158 3.371,7.529 7.529,7.529 C -3.371,7.529 0,4.158 0,0"
             inkscape:connector-curvature="0"
             id="path320"
             style="fill:#ffffff;fill-opacity:1;fill-rule:nonzero;stroke:none" /></g><g
           transform="translate(62.1738,1477.8822)"
           id="g322"><path
             d="m 0,0 c 0,-4.598 -3.698,-8.326 -8.259,-8.326 -4.561,0 -8.259,3.728 -8.259,8.326 0,4.598 3.698,8.326 8.259,8.326 C -3.698,8.326 0,4.598 0,0"
             inkscape:connector-curvature="0"
             id="path324"
             style="fill:#ffffff;fill-opacity:1;fill-rule:nonzero;stroke:none" /></g><g
           transform="translate(10.8954,1456.0059)"
           id="g326"><path
             d="m 0,0 c 0,-0.534 0.357,-0.886 0.88,-0.886 l 13.031,0 c 0.524,0 0.88,0.348 0.88,0.886 l 0,2.172 c 0,4.205 -3.349,7.617 -7.395,7.617 C 2.963,9.789 0,5.793 0,2.172 L 0,0 z"
             inkscape:connector-curvature="0"
             id="path328"
             style="fill:#ffffff;fill-opacity:1;fill-rule:nonzero;stroke:none" /></g><g
           transform="translate(27.1944,1455.9896)"
           id="g330"><path
             d="m 0,0 c 0,-0.524 0.354,-0.87 0.871,-0.87 l 14.465,0 c 0.519,0 0.871,0.341 0.871,0.87 l 0,2.468 c 0,4.128 -3.199,8.344 -8.152,8.344 C 3.807,10.812 0,7.281 0,2.468 L 0,0 z"
             inkscape:connector-curvature="0"
             id="path332"
             style="fill:#ffffff;fill-opacity:1;fill-rule:nonzero;stroke:none" /></g><g
           transform="translate(44.9539,1456)"
           id="g334"><path
             d="m 0,0 c 0,-0.53 0.356,-0.88 0.877,-0.88 l 16.314,0 c 0.522,0 0.877,0.345 0.877,0.88 l 0,3.004 c 0,4.9 -3.831,9.229 -9.005,9.229 C 4.725,12.233 0,8.738 0,3.004 L 0,0 z"
             inkscape:connector-curvature="0"
             id="path336"
             style="fill:#ffffff;fill-opacity:1;fill-rule:nonzero;stroke:none" /></g></g></g></g></svg>