<?xml version="1.0" encoding="utf-8"?>
<!-- Generator: Adobe Illustrator 18.0.0, SVG Export Plug-In . SVG Version: 6.00 Build 0)  -->
<!DOCTYPE svg PUBLIC "-//W3C//DTD SVG 1.1//EN" "http://www.w3.org/Graphics/SVG/1.1/DTD/svg11.dtd">
<svg version="1.1" id="Layer_1" xmlns="http://www.w3.org/2000/svg" xmlns:xlink="http://www.w3.org/1999/xlink" x="0px" y="0px"
	 viewBox="0 0 729.1 174.8" enable-background="new 0 0 729.1 174.8" xml:space="preserve">
<g>
	<g>
		<path fill="#00B0F0" d="M16,140.2c-0.7-0.5-16-11.2-16-26.6V0.2h11.9v113.4c0,9,10.8,16.7,10.9,16.8L16,140.2z"/>
	</g>
	<g>
		<path fill="#00B0F0" d="M71.2,140.4c-14.3,0-25.6-4.7-33.7-13.9c-7.9-9-11.9-21-11.9-35.6c0-14.2,4.2-26,12.4-35.1
			c8.4-9.3,19.6-14,33.2-14c14.2,0,25.5,4.6,33.6,13.5c7.9,8.8,11.9,20.8,11.9,35.6c0,14.8-4.1,26.8-12.1,35.7
			C96.4,135.8,85.2,140.4,71.2,140.4z M71.2,53.7C61,53.7,53,57,46.9,63.7c-6.3,6.9-9.3,15.8-9.3,27.1c0,11.8,2.9,20.8,8.9,27.7
			c5.8,6.6,13.9,9.9,24.7,9.9c10.6,0,18.6-3.2,24.5-9.8c6.1-6.8,9.1-15.9,9.1-27.8c0-11.8-3-21.1-8.9-27.6
			C90.1,56.8,82,53.7,71.2,53.7z"/>
	</g>
	<g>
		<path fill="#00B0F0" d="M163.2,175.5c-9.3,0-24.3-0.7-24.9-0.7l0.5-11.9c0.2,0,15.3,0.7,24.4,0.7c8.3,0,19.6,0,26.8-7.2
			c4.3-4.3,6.3-11.1,6.3-21c0-0.1,0-0.2,0-0.3c-2,1-4,2-5.6,2.5c-6.5,2.3-12.7,2.7-21.3,2.7c-13.8,0-24.8-4.4-32.8-13
			c-7.9-8.5-11.9-20.4-11.9-35.3c0-15,4.5-27.2,13.5-36.3c9-9.1,20.5-13.7,34.4-13.7c4.5,0,20.8,0.8,30.1,1.3l5.7,0.3v16.9
			c0,0-0.2,69.6-0.2,75c0,13.2-3.2,22.8-9.8,29.4C187.7,175.5,172.9,175.5,163.2,175.5z M172.6,54c-10.7,0-19.1,3.3-25.9,10.2
			c-6.8,6.9-10.1,16-10.1,27.9c0,11.9,2.9,21,8.7,27.2c5.7,6.2,13.6,9.2,24.1,9.2c7.4,0,12.4-0.3,17.3-2.1c1-0.4,2.5-1.1,4.1-1.9
			c3.3-1.7,5.4-5.1,5.5-8.8c0-15.8,0.1-38.5,0.1-51.2c0-5.3-4.2-9.7-9.5-9.9C179.6,54.2,174.6,54,172.6,54z"/>
	</g>
	<g>
		<path fill="#00B0F0" d="M318.8,138.8h-11.9V86.5c0-16.9-3.1-23.6-5.6-26.2c-4-4.2-10.4-6.1-20.6-6.2l-0.6,0c-3,0-10.2,1-17.1,2
			c-4.9,0.7-8.4,4.9-8.4,9.8v72.9h-11.9V43.8c0,0,30-1.8,37.4-1.8c0.3,0,0.6,0,0.9,0c9.2,0.1,20.7,1.4,28.9,9.9
			c6.1,6.3,9,17.3,9,34.5V138.8z"/>
	</g>
	<g>
		<path fill="#0A2135" d="M617.5,140.3c-0.3,0-0.6,0-0.9,0c-9.2-0.1-20.7-1.4-28.9-9.9c-6.1-6.3-9-17.5-9-35.1V43.8h11.9v51.4
			c0,17.4,3.1,25.8,5.6,28.5c4,4.2,10.4,6.1,20.6,6.2l0.6,0c3,0,10.2-1,17.1-2c4.9-0.7,8.4-4.9,8.4-9.8V43.8h11.9v94.9
			C654.9,138.8,624.9,140.3,617.5,140.3z"/>
	</g>
	<g>
		<path fill="#0A2135" d="M410.3,140.4c-9.3,0-16.9-2.5-22.5-7.4c-5.7-5-8.8-12.8-8.8-22.1c0-10.4,4-18.7,11.9-24.6
			c7.4-5.5,17.7-8.4,30.6-8.4c4.6,0,10.9,0.4,17.5,2.2c-0.2-6.8-1.2-13.6-5.3-17.7c-7.5-7.5-18.2-8.4-25.6-8.4
			c-9,0-18.7,0.3-18.8,0.3l-0.4-11.9c0.1,0,10-0.3,19.2-0.3c5.5,0,22.1,0,34,11.9c8.8,8.8,8.8,22.7,8.8,30.2v54.6l-5.6,0.4
			C444.7,139.1,425.9,140.4,410.3,140.4z M421.5,89.8c-10.3,0-18.2,2-23.5,6c-4.9,3.7-7.1,8.5-7.1,15.1c0,5.7,1.7,12,4.7,14.6
			c3.4,2.9,8.3,4.4,14.6,4.4c6.3,0,13.3-0.2,19.3-0.5c5.3-0.2,9.5-4.6,9.5-9.9v-19.2c0-4.9-3.6-9.1-8.5-9.8
			C427.2,90,424.1,89.8,421.5,89.8z"/>
	</g>
	<g>
		<path fill="#0A2135" d="M504.1,140.4c-12.6,0-23.7-4.6-31.3-12.9c-7.5-8.3-11.4-20.5-11.4-35.2c0-14.5,4.4-26.6,13-35.9
			c8.7-9.4,19.8-14.2,32.9-14.2c7.3,0,13.1,0.5,18.4,1.7c2.3,0.5,4.7,1.2,6.9,2V0.4h11.9v138.4C544.5,138.8,512.1,140.4,504.1,140.4
			z M507.2,54c-9.8,0-17.6,3.4-24.1,10.4c-6.6,7.1-9.8,16.2-9.8,27.8c0,11.8,2.9,21.2,8.4,27.2c5.3,5.8,13.2,10.5,22.4,10.5
			c4.3,0,11.8-0.3,18.9-0.6c5.3-0.2,9.5-4.6,9.5-9.9V108V65.5c0-4.5-3-8.4-7.3-9.6c-0.7-0.2-1.5-0.4-2.2-0.5
			C518.6,54.5,513.6,54,507.2,54z"/>
	</g>
	<g>
		<g>
			<rect x="218.9" y="43.8" fill="#00B0F0" width="11.9" height="94.9"/>
		</g>
		<path fill="#00B0F0" d="M224.7,0c-2.4,0-4.3,0.8-6,2.5c-1.7,1.7-2.5,3.6-2.5,6s0.8,4.3,2.5,6c1.7,1.7,3.6,2.5,6,2.5h8.5V8.5
			c0-2.4-0.8-4.3-2.5-6C228.9,0.8,227.1,0,224.7,0z"/>
	</g>
	<g>
		<g>
			<rect x="555.3" y="43.8" fill="#0A2135" width="11.9" height="94.9"/>
		</g>
		<path fill="#0A2135" d="M566.7,2.8c-1.6-1.6-3.4-2.4-5.7-2.4c-2.3,0-4,0.7-5.7,2.3c-1.6,1.6-2.4,3.4-2.4,5.7c0,2.3,0.7,4,2.4,5.7
			c1.6,1.6,3.4,2.3,5.7,2.3h8v-8C569.1,6.2,568.3,4.5,566.7,2.8z"/>
	</g>
	<path fill="#0A2135" d="M369,42.1c-0.3,0-0.6,0-0.9,0c-7.4,0-37.4,1.8-37.4,1.8v94.9h11.9V65.8c0-4.9,3.6-9.1,8.4-9.8
		c6.9-1,14-2,17.1-2l0.6,0c4.3,0.1,7.1-0.2,10.8,0.1V42.1C376.4,41.5,372.9,42.1,369,42.1z"/>
	<g>
		<path fill="#0A2135" d="M729,115.3c-0.7,16.7-12.8,25-34.8,25c-12.7,0-29-1.6-29-1.6v-12.9c0,0,7.5,2.5,28.5,2.5
			c10,0,22-2.2,23.2-13.1c3-27.5-52.8-5.5-52.8-45c0-13.5,8.9-26.3,33.9-26.3c10,0,28.4,0.9,28.4,0.9v13c0,0-7.9-2.6-26.8-2.5
			c-9.8,0.1-22.9,4.2-22.8,14.6C677.1,97.1,730.7,73.4,729,115.3z"/>
	</g>
</g>
</svg>
